# xmcd
#
# Track frame offsets:
#	150
#	15961
#	30220
#	39546
#	50961
#	59029
#	72659
#	84938
#	95134
#	107029
#	123845
#	134566
#
# Disc length: 1968 seconds
#
# Revision: 0
# Processed by: cddbd v1.5.2PL0 Copyright (c) Steve Scherf et al.
# Submitted via: dBpowerAMP V4.0
#
DISCID=a607ae0c
DTITLE=Willie Nelson - Country Boots CD 4
DYEAR=2007
DGENRE=Country
TTITLE0=I Can't Help It If I'm Still In Love With You
TTITLE1=That's The Way Love Goes
TTITLE2=Something To Brag About - Mary Kay Place w Willie Nelson
TTITLE3=Is There Something On Your Mind
TTITLE4=Things To Remember
TTITLE5=You'll Always Have Someone
TTITLE6=I Can't Find The Time
TTITLE7=Pride Wins Again
TTITLE8=Happiness Lives Next Door
TTITLE9=I Let My Mind Wander
TTITLE10=Blame It On The Times
TTITLE11=Just A Closer Walk With Thee - Patsy Cline w Willie Nelson
EXTD=
EXTT0=
EXTT1=
EXTT2=
EXTT3=
EXTT4=
EXTT5=
EXTT6=
EXTT7=
EXTT8=
EXTT9=
EXTT10=
EXTT11=
PLAYORDER=
